<?xml version="1.0" encoding="UTF-8"?>
<svg version="1.1" xmlns="http://www.w3.org/2000/svg" width="512" height="512">
<path d="M0 0 C1.51864898 -0.01158402 3.03725526 -0.03213593 4.55566406 -0.06152344 C6.76622765 -0.10419933 8.97559923 -0.12035868 11.18652344 -0.13061523 C13.15419678 -0.15248901 13.15419678 -0.15248901 15.16162109 -0.17480469 C19.21627181 0.37185469 20.89975387 1.29116023 23.64746094 4.29516602 C23.64746094 5.61516602 23.64746094 6.93516602 23.64746094 8.29516602 C29.25746094 8.29516602 34.86746094 8.29516602 40.64746094 8.29516602 C40.97746094 6.64516602 41.30746094 4.99516602 41.64746094 3.29516602 C43.72659104 1.1715937 45.04803664 0.39158362 47.98533273 -0.08088148 C48.85609185 -0.08136853 49.72685097 -0.08185559 50.62399673 -0.08235741 C52.13641933 -0.09409227 52.13641933 -0.09409227 53.67939591 -0.1060642 C54.78520564 -0.09937204 55.89101536 -0.09267987 57.03033447 -0.08578491 C58.2066933 -0.09046488 59.38305213 -0.09514486 60.5950582 -0.09996665 C63.86170124 -0.10987441 67.12801087 -0.10629192 70.39464569 -0.09700799 C73.91776826 -0.09022978 77.44084519 -0.10069322 80.96395874 -0.10894775 C87.86967875 -0.12230543 94.77530106 -0.11939688 101.68102494 -0.11070983 C107.29960329 -0.1039351 112.91815427 -0.10301568 118.53673553 -0.10628128 C119.33642877 -0.10674098 120.136122 -0.10720068 120.96004836 -0.10767431 C122.58476053 -0.10863351 124.2094727 -0.10960615 125.83418486 -0.11059208 C141.08288522 -0.11915363 156.33153155 -0.10930331 171.58022305 -0.09319098 C184.63977226 -0.0798179 197.69924135 -0.0820895 210.75878906 -0.09594727 C225.93426257 -0.11204284 241.10968851 -0.11829717 256.28516936 -0.10911047 C257.90757862 -0.10815489 259.52998788 -0.10721177 261.15239716 -0.10628128 C261.95055779 -0.10581845 262.74871842 -0.10535563 263.57106574 -0.10487878 C269.17113 -0.10229848 274.7711639 -0.10663972 280.37122345 -0.11371994 C287.21376426 -0.12218078 294.05620197 -0.11976067 300.89873114 -0.10387771 C304.38425732 -0.09605132 307.86961237 -0.09280523 311.35513687 -0.10282516 C340.80948249 -0.16703857 365.85913811 3.86298642 388.64746094 24.29516602 C389.27007812 24.8352832 389.89269531 25.37540039 390.53417969 25.93188477 C404.68896728 39.03083738 415.92262755 60.1638251 416.74261153 79.54403758 C416.78529323 82.31495291 416.79514749 85.08431188 416.79463196 87.8555603 C416.79830865 88.91928852 416.80198533 89.98301673 416.80577344 91.07897913 C416.81678712 94.64372212 416.82065024 98.20843593 416.82446289 101.77319336 C416.8307294 104.32936698 416.83737637 106.8855397 416.84437561 109.44171143 C416.86358442 117.1130651 416.87420206 124.78441364 416.8831034 132.45578521 C416.88749358 136.07489064 416.89285856 139.69399462 416.89809227 143.31309891 C416.91510204 155.35560744 416.9295934 167.39811508 416.93684101 179.44063377 C416.93875068 182.56288021 416.94067105 185.68512664 416.94262695 188.80737305 C416.94311069 189.58332414 416.94359443 190.35927524 416.94409283 191.15874 C416.95238268 203.71205618 416.977703 216.26527674 417.01020763 228.81855123 C417.04336012 241.728082 417.06129722 254.63756432 417.06448525 267.54713786 C417.066643 274.78666722 417.07528292 282.02605723 417.10094643 289.26554489 C417.1250594 296.08311152 417.12842797 302.90042464 417.11818504 309.71802521 C417.11769149 312.21078194 417.12395816 314.70355131 417.13774109 317.19626999 C417.28161986 344.77630593 411.31218296 368.58959824 391.87792969 389.06079102 C391.141875 389.79813477 390.40582031 390.53547852 389.64746094 391.29516602 C388.96296875 391.99125977 388.27847656 392.68735352 387.57324219 393.40454102 C371.74982108 408.49675042 348.61702834 416.76498742 326.945755 416.26496887 C326.09381677 416.25015101 325.24187854 416.23533314 324.364124 416.22006625 C322.50479571 416.18734242 320.64550883 416.15219644 318.78626633 416.11491585 C313.60767036 416.01176205 308.42874353 415.92829806 303.24983215 415.84272766 C302.14617329 415.82408744 301.04251443 415.80544721 299.90541136 415.78624213 C284.47106866 415.53241311 269.0350938 415.42878582 253.59917927 415.31770802 C241.04764791 415.22304496 228.50057487 415.07659539 215.95141602 414.81054688 C204.97787518 414.57811517 194.0082974 414.44726016 183.03223294 414.43232554 C177.23571953 414.42091366 171.44935825 414.3620003 165.65548134 414.18009377 C137.05506529 412.73425816 137.05506529 412.73425816 112.6127705 425.4681806 C107.79934421 430.1739587 103.38304686 435.28607935 99.46266448 440.76116168 C96.25207487 445.13427573 93.66951024 446.63581244 88.64746094 448.29516602 C82.46903846 448.9816574 77.68912365 448.17021715 72.64746094 444.29516602 C71.04590351 442.23334007 69.54919561 440.17762935 68.06933594 438.03344727 C61.38340456 428.78548569 53.96743442 419.27603853 42.35968018 416.51239014 C26.97259586 414.24615658 11.15678072 415.28243989 -4.31343079 416.03843689 C-28.04631979 417.06780367 -49.73036595 408.11633087 -67.35253906 392.29516602 C-68.39667969 391.39217773 -68.39667969 391.39217773 -69.46191406 390.47094727 C-83.4530453 377.57112427 -94.64119697 356.12988585 -95.44755232 337.04656911 C-95.49038087 334.27555951 -95.50022564 331.50611662 -95.49971008 328.73477173 C-95.50338677 327.67104351 -95.50706346 326.6073153 -95.51085156 325.5113529 C-95.52186525 321.94660991 -95.52572836 318.38189611 -95.52954102 314.81713867 C-95.53580752 312.26096505 -95.54245449 309.70479233 -95.54945374 307.14862061 C-95.56866255 299.47726693 -95.57928018 291.80591839 -95.58818153 284.13454682 C-95.59257171 280.51544139 -95.59793669 276.89633741 -95.60317039 273.27723312 C-95.62018016 261.23472459 -95.63467152 249.19221695 -95.64191914 237.14969826 C-95.64382881 234.02745182 -95.64574917 230.90520539 -95.64770508 227.78295898 C-95.64818882 227.00700789 -95.64867256 226.2310568 -95.64917096 225.43159203 C-95.6574608 212.87827586 -95.68278112 200.32505529 -95.71528576 187.7717808 C-95.74843825 174.86225003 -95.76637535 161.95276771 -95.76956338 149.04319417 C-95.77172112 141.80366481 -95.78036104 134.5642748 -95.80602455 127.32478714 C-95.83013753 120.50722051 -95.8335061 113.68990739 -95.82326317 106.87230682 C-95.82276962 104.37955009 -95.82903629 101.88678072 -95.84281921 99.39406204 C-95.98669798 71.8140261 -90.01726108 48.00073379 -70.58300781 27.52954102 C-69.47892578 26.42352539 -69.47892578 26.42352539 -68.35253906 25.29516602 C-67.66804688 24.59907227 -66.98355469 23.90297852 -66.27832031 23.18579102 C-48.37368437 6.10854121 -24.04105043 0.12776697 0 0 Z " fill="#C4E87C" transform="translate(95.3525390625,31.704833984375)"/>
<path d="M0 0 C5.3451582 3.72459935 9.3558872 8.37635934 11.33203125 14.625 C12.36963815 22.79615433 12.01470555 29.61228968 7.2578125 36.4921875 C4.11821188 39.96931111 0.53236576 42.55843542 -3.66796875 44.625 C-4.32796875 44.625 -4.98796875 44.625 -5.66796875 44.625 C-5.66796875 52.545 -5.66796875 60.465 -5.66796875 68.625 C-3.60546875 68.563125 -1.54296875 68.50125 0.58203125 68.4375 C21.26432925 68.47907246 40.95403274 78.42255996 55.55078125 92.72265625 C66.32741985 103.73984481 78.33203125 121.49070383 78.33203125 137.625 C79.24984375 137.57859375 80.16765625 137.5321875 81.11328125 137.484375 C89.82708972 137.22808652 95.77017416 137.36788235 102.26171875 143.42578125 C109.99594084 151.68952477 110.83700721 158.7207483 110.76953125 169.75 C110.78951172 170.91660156 110.80949219 172.08320313 110.83007812 173.28515625 C110.82943359 174.41050781 110.82878906 175.53585938 110.828125 176.6953125 C110.82997803 177.71383301 110.83183105 178.73235352 110.83374023 179.78173828 C110.20350788 183.35336166 108.8282213 185.04246375 106.33203125 187.625 C103.33916243 188.54985966 101.54229724 188.08360943 98.33203125 187.625 C96.08114086 185.43304178 95.39233445 184.08102734 94.97900391 180.95532227 C94.98464355 179.96072998 94.9902832 178.9661377 94.99609375 177.94140625 C94.97675781 176.30268555 94.97675781 176.30268555 94.95703125 174.63085938 C94.95703125 172.33917939 94.96481735 170.04748591 94.98046875 167.75585938 C94.92546991 161.24793103 94.92546991 161.24793103 92.35546875 155.40234375 C88.61190798 152.92470697 88.61190798 152.92470697 80.33203125 152.625 C80.33203125 181.335 80.33203125 210.045 80.33203125 239.625 C88.62054993 239.33412784 88.62054993 239.33412784 92.359375 236.81640625 C95.38612081 231.91967095 94.95824626 227.20630851 94.89453125 221.5625 C94.87792536 219.40501143 94.87852248 217.24730431 94.8984375 215.08984375 C94.88756104 214.137146 94.87668457 213.18444824 94.86547852 212.20288086 C95.4727983 208.84720866 96.66374876 207.68692221 99.33203125 205.625 C102.83203125 205.0625 102.83203125 205.0625 106.33203125 205.625 C109.02001604 207.84258745 110.18523909 209.66172347 110.71289062 213.12426758 C110.87292578 216.19689057 110.87702324 219.23617275 110.83203125 222.3125 C110.8475 223.35083984 110.86296875 224.38917969 110.87890625 225.45898438 C110.8344981 234.31285874 109.09322116 241.84814534 103.08203125 248.5625 C95.84542593 255.05101743 87.72786815 255.20963526 78.33203125 255.625 C78.12449219 256.40101563 77.91695313 257.17703125 77.703125 257.9765625 C70.97569826 281.56477842 57.01697171 300.51998508 35.453125 312.578125 C21.77570252 319.70837691 8.24491941 321.76926858 -6.984375 321.80200195 C-8.3305122 321.80827655 -9.6766477 321.81492422 -11.02278137 321.82191467 C-15.42533182 321.84284535 -19.82788217 321.85330923 -24.23046875 321.86328125 C-25.75408953 321.86733342 -27.27771014 321.87145048 -28.80133057 321.87563133 C-35.96515314 321.89466174 -43.12896558 321.90889521 -50.29280853 321.9172433 C-58.5238438 321.92699691 -66.7546088 321.95327616 -74.98554897 321.99374419 C-81.37228575 322.02405208 -87.7589457 322.03872612 -94.14575291 322.04202431 C-97.94853823 322.04435878 -101.75103419 322.05310676 -105.55374146 322.07848549 C-109.13916876 322.10202906 -112.72412154 322.1058961 -116.30960655 322.09572411 C-118.22588085 322.09500469 -120.1421325 322.11391075 -122.05830383 322.13378906 C-133.96740568 322.0637131 -145.47490676 319.44719722 -156.04296875 313.8125 C-157.04481201 313.29320923 -157.04481201 313.29320923 -158.06689453 312.76342773 C-163.41861792 309.91572768 -168.11546825 306.63533125 -172.66796875 302.625 C-173.46332031 301.98304688 -174.25867188 301.34109375 -175.078125 300.6796875 C-189.22526911 288.82844777 -197.02433136 273.30340902 -201.66796875 255.625 C-202.51359375 255.58761719 -203.35921875 255.55023438 -204.23046875 255.51171875 C-214.17226894 254.93554624 -220.79560569 253.98589794 -228.02734375 246.9296875 C-234.5169223 237.81337477 -234.27411046 228.58888619 -234.234375 217.81640625 C-234.23961881 216.08202279 -234.24589805 214.34764218 -234.25315857 212.61326599 C-234.26352911 208.98968016 -234.25904992 205.36648785 -234.24438477 201.74291992 C-234.22720402 197.12180798 -234.25070047 192.50194035 -234.28587437 187.88096714 C-234.30793835 184.30246394 -234.30638522 180.72425436 -234.29810905 177.14570427 C-234.29729441 175.44301934 -234.30406374 173.74031178 -234.31888008 172.03769112 C-234.3978713 161.31888846 -233.81416683 152.70687046 -226.60546875 144.1875 C-225.64640625 143.4140625 -225.64640625 143.4140625 -224.66796875 142.625 C-223.70890625 141.820625 -223.70890625 141.820625 -222.73046875 141 C-217.93593556 137.80364454 -214.0839736 137.39292514 -208.35546875 137.5 C-207.10121094 137.51804688 -205.84695312 137.53609375 -204.5546875 137.5546875 C-203.60207031 137.57789063 -202.64945313 137.60109375 -201.66796875 137.625 C-201.58160156 136.97015625 -201.49523437 136.3153125 -201.40625 135.640625 C-198.27707482 115.31534031 -185.68145026 96.38154973 -169.23046875 84.1875 C-153.35932149 73.49434464 -136.3856579 67.44088401 -117.16455078 67.51147461 C-115.59778847 67.51125557 -115.59778847 67.51125557 -113.99937439 67.5110321 C-110.55815531 67.51172695 -107.11699083 67.51949934 -103.67578125 67.52734375 C-101.28539052 67.52920945 -98.8949994 67.53063264 -96.50460815 67.53163147 C-90.22134338 67.53544468 -83.93810181 67.54526478 -77.65484619 67.55633545 C-71.23995274 67.56657527 -64.82505552 67.5711346 -58.41015625 67.57617188 C-45.82941526 67.58688811 -33.24869757 67.60447524 -20.66796875 67.625 C-20.66796875 60.035 -20.66796875 52.445 -20.66796875 44.625 C-22.31796875 43.965 -23.96796875 43.305 -25.66796875 42.625 C-31.79658015 38.78163353 -35.39492813 33.43406416 -37.66796875 26.625 C-38.89501824 19.59637442 -37.35999944 13.66650477 -33.66796875 7.625 C-31.23046875 4.8125 -31.23046875 4.8125 -28.66796875 2.625 C-27.86359375 1.903125 -27.05921875 1.18125 -26.23046875 0.4375 C-17.99085304 -5.39052087 -8.54567409 -4.73712958 0 0 Z " fill="#A8E2F7" transform="translate(317.66796875,79.375)"/>
<path d="M0 0 C1.51864898 -0.01158402 3.03725526 -0.03213593 4.55566406 -0.06152344 C6.76622765 -0.10419933 8.97559923 -0.12035868 11.18652344 -0.13061523 C13.15419678 -0.15248901 13.15419678 -0.15248901 15.16162109 -0.17480469 C19.20196479 0.36992578 20.8554444 1.3678812 23.64746094 4.29516602 C24.21085406 8.15843315 23.93979418 11.08589947 21.64746094 14.29516602 C17.99544185 16.79853017 14.20396325 16.55802043 9.94433594 16.53344727 C8.38964002 16.54889806 6.83495241 16.56520385 5.28027344 16.58227539 C2.85853526 16.59853355 0.43741177 16.60778477 -1.984375 16.60058594 C-23.61942514 16.57597014 -42.38804597 23.15936417 -58.35253906 38.29516602 C-63.8721731 43.94045026 -68.05357414 50.0643598 -71.66503906 57.04516602 C-71.97852295 57.63950439 -72.29200684 58.23384277 -72.61499023 58.84619141 C-79.96654768 73.90499513 -79.92517671 88.92741627 -79.85424805 105.32348633 C-79.85803697 107.82998965 -79.86354172 110.33649087 -79.87062073 112.84298706 C-79.88307655 118.91072495 -79.87706463 124.97818012 -79.86194514 131.04589036 C-79.84498258 138.12577157 -79.84830795 145.205602 -79.85203923 152.28549728 C-79.85790101 164.9228769 -79.84381025 177.5601565 -79.8190918 190.19750977 C-79.79515558 202.43648015 -79.78809762 214.67531704 -79.79858398 226.91430664 C-79.8100115 240.27549554 -79.81190221 253.6366229 -79.79748589 266.99781108 C-79.79596019 268.42420752 -79.79443984 269.85060397 -79.79292488 271.27700043 C-79.79216707 271.97864001 -79.79140925 272.68027959 -79.79062847 273.40318097 C-79.7859014 278.32894937 -79.7877257 283.25469011 -79.79199028 288.18045807 C-79.79745129 294.81590333 -79.786605 301.45119153 -79.76503563 308.0866127 C-79.75948601 310.51696019 -79.75898563 312.94732543 -79.76398849 315.3776741 C-79.76997473 318.70350257 -79.75737199 322.02877473 -79.74021912 325.35455322 C-79.74622916 326.30836293 -79.75223921 327.26217265 -79.75843138 328.24488568 C-79.57869727 347.50468686 -70.19912566 365.84666963 -57.21972656 379.65454102 C-42.30359363 393.39201494 -23.79744713 399.81696898 -3.73497772 399.58359528 C-1.53040275 399.56019108 0.67318515 399.55953218 2.87786865 399.56488037 C9.13563541 399.57742537 15.39285234 399.56044063 21.65039062 399.50463867 C25.50309355 399.4718617 29.35457013 399.47328063 33.2073288 399.49565887 C34.6632895 399.49739628 36.11932926 399.48629088 37.57508087 399.46155548 C50.30642769 399.25010043 50.30642769 399.25010043 55.23364258 403.47192383 C56.40297811 404.71759305 57.54350828 405.99120055 58.64746094 407.29516602 C59.6524148 408.30543249 60.66275645 409.3103799 61.67944336 410.30883789 C62.62281012 411.29175273 63.56394673 412.27681246 64.50292969 413.26391602 C65.54710951 414.34015729 66.59205265 415.41565844 67.63769531 416.49047852 C69.25130075 418.15380566 70.85963996 419.82114237 72.45581055 421.5012207 C74.02040674 423.14427188 75.60324958 424.76771104 77.19042969 426.38891602 C77.66449753 426.89708862 78.13856537 427.40526123 78.6269989 427.92883301 C80.72140657 430.04021026 82.05162895 431.24416001 85.06591797 431.50219727 C88.92655454 429.69711053 91.47762405 426.93623385 94.40917969 423.88891602 C95.04104691 423.24901733 95.67291412 422.60911865 96.32392883 421.9498291 C98.33727621 419.90751796 100.33649677 417.85203389 102.33496094 415.79516602 C104.34667759 413.74096352 106.36119705 411.68958553 108.37812805 409.64050293 C109.63157884 408.3653276 110.8815175 407.08668876 112.12760925 405.80432129 C117.4724334 400.3364988 117.4724334 400.3364988 122.27186108 400.16767406 C123.88160186 400.1612834 125.49137005 400.16049397 127.10112 400.16386414 C127.98654332 400.16174842 128.87196665 400.15963271 129.78422099 400.15745288 C132.76948963 400.15143218 135.75471624 400.15245453 138.73999023 400.15332031 C140.87355624 400.15028998 143.00712159 400.14676888 145.14068604 400.14279175 C149.7465745 400.13488928 154.35245518 400.12975262 158.95834923 400.12650108 C166.25072477 400.12059565 173.54305138 400.10405707 180.83540344 400.0851593 C183.33197686 400.07882125 185.82855031 400.07249563 188.32512379 400.06618214 C189.57578904 400.06301633 190.82645429 400.05985051 192.11501849 400.05658877 C209.09628274 400.01453096 226.07752507 399.98156942 243.05883789 399.96923828 C254.50570443 399.96084052 265.95245065 399.9382812 277.399257 399.89988261 C283.45446436 399.88016993 289.50949203 399.86770127 295.56473351 399.8727169 C301.27179704 399.87738596 306.97852117 399.86343487 312.68551636 399.8357048 C314.77069294 399.82882932 316.85590488 399.82862681 318.94108009 399.83590508 C333.87108566 399.88271832 347.42765526 398.71231749 360.89746094 391.60766602 C361.5594751 391.26517822 362.22148926 390.92269043 362.90356445 390.56982422 C380.80474125 380.97347371 392.01967952 365.36185427 398.02246094 346.17016602 C398.58258658 344.21703225 399.12706061 342.25925759 399.64746094 340.29516602 C399.9132865 339.35795006 399.9132865 339.35795006 400.18448228 338.40180045 C400.67879838 336.15257513 400.77632149 334.14865147 400.78168201 331.84682751 C400.78836878 330.51113304 400.78836878 330.51113304 400.79519063 329.14845484 C400.79500627 328.17425524 400.79482191 327.20005564 400.79463196 326.19633484 C400.80014699 324.63899941 400.80014699 324.63899941 400.80577344 323.05020267 C400.81681512 319.55983066 400.82065502 316.06948843 400.82446289 312.57910156 C400.83072737 310.08071294 400.83737416 307.58232526 400.84437561 305.0839386 C400.86360871 297.57638261 400.87420678 290.06883453 400.8831034 282.56126115 C400.88749033 279.02122025 400.89285626 275.48118085 400.89809227 271.94114113 C400.9151069 260.16378306 400.92959776 248.3864259 400.93684101 236.60905743 C400.93875076 233.55349921 400.94067111 230.497941 400.94262695 227.44238281 C400.94311069 226.68298209 400.94359443 225.92358137 400.94409283 225.14116851 C400.95238064 212.85864269 400.9776953 200.57621466 401.01020763 188.29373147 C401.0433546 175.66790191 401.06129684 163.04212189 401.06448525 150.41624862 C401.06664382 143.33377478 401.07529557 136.25144333 401.10094643 129.16901207 C401.12505048 122.49838404 401.1284314 115.82805533 401.11818504 109.15737724 C401.11769126 106.71741637 401.12396495 104.27744263 401.13774109 101.8375206 C401.22287709 85.85625401 400.57423577 71.48117359 392.95996094 57.04516602 C392.61747314 56.38315186 392.27498535 55.7211377 391.92211914 55.0390625 C384.77954067 41.71518902 374.26070701 31.89603575 360.89746094 24.98266602 C360.30312256 24.66918213 359.70878418 24.35569824 359.09643555 24.03271484 C343.63112339 16.48270404 328.1525256 16.72546881 311.29321885 16.81965578 C307.73097407 16.83504108 304.16876964 16.82692788 300.60650635 16.82162476 C294.44998991 16.81538733 288.29362153 16.82304399 282.13712692 16.83987617 C273.23068863 16.86376717 264.32440795 16.86066919 255.41795094 16.85024773 C240.95684544 16.83358662 226.49577896 16.83095662 212.03466797 16.84082031 C211.17120253 16.84140326 210.30773709 16.8419862 209.41810603 16.84258681 C199.7709226 16.84932435 190.12374252 16.85840855 180.4765625 16.86889648 C176.9698894 16.87263727 173.46321623 16.87629667 169.95654297 16.87988281 C168.65839071 16.88121918 168.65839071 16.88121918 167.33401315 16.88258255 C152.91113836 16.89686594 138.48833887 16.89176695 124.06547129 16.8719601 C115.17781785 16.86063335 106.29049091 16.86641734 97.40287216 16.89423894 C91.32209284 16.91210645 85.24148015 16.91228551 79.16069083 16.89845032 C75.65202071 16.89108708 72.14384991 16.89201511 68.63523483 16.91473579 C64.83435577 16.93918753 61.03417495 16.92521833 57.23324585 16.90748596 C55.5662045 16.92758857 55.5662045 16.92758857 53.86548555 16.94809729 C46.43538245 16.86800551 46.43538245 16.86800551 42.46241188 13.97955227 C40.0652517 10.43405487 39.88500394 8.4886795 40.64746094 4.29516602 C42.8201082 1.68873176 44.6129101 0.45542781 47.99577391 -0.06861007 C51.05422828 -0.22067863 54.0883886 -0.23270779 57.15058899 -0.20603943 C58.91640887 -0.21434102 58.91640887 -0.21434102 60.71790189 -0.22281033 C63.9823833 -0.23406971 67.24625983 -0.22738099 70.51071131 -0.21307361 C74.03314056 -0.20196909 77.55550189 -0.21390528 81.07792664 -0.22291565 C87.98019998 -0.23685849 94.88229051 -0.229282 101.78455517 -0.21424007 C109.83235684 -0.19737125 117.88011304 -0.20059184 125.92792692 -0.20433415 C140.30102785 -0.21021573 154.67404128 -0.19603517 169.04711914 -0.17138672 C182.96935312 -0.1475143 196.89146994 -0.14036291 210.8137207 -0.15087891 C225.98444532 -0.16231747 241.1551157 -0.1641782 256.3258397 -0.14978081 C257.94767169 -0.14825507 259.56950368 -0.14673472 261.19133568 -0.1452198 C262.38813415 -0.14408308 262.38813415 -0.14408308 263.60911036 -0.1429234 C269.20667806 -0.13819935 274.80422141 -0.14001897 280.40178871 -0.1442852 C287.24065239 -0.14923946 294.07940576 -0.14310714 300.91824434 -0.12339091 C304.40174741 -0.11359241 307.88508343 -0.10833169 311.36859512 -0.11628342 C340.81491105 -0.16295513 365.86558796 3.8687694 388.64746094 24.29516602 C389.27007812 24.8352832 389.89269531 25.37540039 390.53417969 25.93188477 C404.68896728 39.03083738 415.92262755 60.1638251 416.74261153 79.54403758 C416.78529323 82.31495291 416.79514749 85.08431188 416.79463196 87.8555603 C416.79830865 88.91928852 416.80198533 89.98301673 416.80577344 91.07897913 C416.81678712 94.64372212 416.82065024 98.20843593 416.82446289 101.77319336 C416.8307294 104.32936698 416.83737637 106.8855397 416.84437561 109.44171143 C416.86358442 117.1130651 416.87420206 124.78441364 416.8831034 132.45578521 C416.88749358 136.07489064 416.89285856 139.69399462 416.89809227 143.31309891 C416.91510204 155.35560744 416.9295934 167.39811508 416.93684101 179.44063377 C416.93875068 182.56288021 416.94067105 185.68512664 416.94262695 188.80737305 C416.94311069 189.58332414 416.94359443 190.35927524 416.94409283 191.15874 C416.95238268 203.71205618 416.977703 216.26527674 417.01020763 228.81855123 C417.04336012 241.728082 417.06129722 254.63756432 417.06448525 267.54713786 C417.066643 274.78666722 417.07528292 282.02605723 417.10094643 289.26554489 C417.1250594 296.08311152 417.12842797 302.90042464 417.11818504 309.71802521 C417.11769149 312.21078194 417.12395816 314.70355131 417.13774109 317.19626999 C417.28161986 344.77630593 411.31218296 368.58959824 391.87792969 389.06079102 C391.141875 389.79813477 390.40582031 390.53547852 389.64746094 391.29516602 C388.96296875 391.99125977 388.27847656 392.68735352 387.57324219 393.40454102 C371.74982108 408.49675042 348.61702834 416.76498742 326.945755 416.26496887 C326.09381677 416.25015101 325.24187854 416.23533314 324.364124 416.22006625 C322.50479571 416.18734242 320.64550883 416.15219644 318.78626633 416.11491585 C313.60767036 416.01176205 308.42874353 415.92829806 303.24983215 415.84272766 C302.14617329 415.82408744 301.04251443 415.80544721 299.90541136 415.78624213 C284.47106866 415.53241311 269.0350938 415.42878582 253.59917927 415.31770802 C241.04764791 415.22304496 228.50057487 415.07659539 215.95141602 414.81054688 C204.97787518 414.57811517 194.0082974 414.44726016 183.03223294 414.43232554 C177.23571953 414.42091366 171.44935825 414.3620003 165.65548134 414.18009377 C137.05506529 412.73425816 137.05506529 412.73425816 112.6127705 425.4681806 C107.79934421 430.1739587 103.38304686 435.28607935 99.46266448 440.76116168 C96.25207487 445.13427573 93.66951024 446.63581244 88.64746094 448.29516602 C82.46903846 448.9816574 77.68912365 448.17021715 72.64746094 444.29516602 C71.04590351 442.23334007 69.54919561 440.17762935 68.06933594 438.03344727 C61.38340456 428.78548569 53.96743442 419.27603853 42.35968018 416.51239014 C26.97259586 414.24615658 11.15678072 415.28243989 -4.31343079 416.03843689 C-28.04631979 417.06780367 -49.73036595 408.11633087 -67.35253906 392.29516602 C-68.39667969 391.39217773 -68.39667969 391.39217773 -69.46191406 390.47094727 C-83.4530453 377.57112427 -94.64119697 356.12988585 -95.44755232 337.04656911 C-95.49038087 334.27555951 -95.50022564 331.50611662 -95.49971008 328.73477173 C-95.50338677 327.67104351 -95.50706346 326.6073153 -95.51085156 325.5113529 C-95.52186525 321.94660991 -95.52572836 318.38189611 -95.52954102 314.81713867 C-95.53580752 312.26096505 -95.54245449 309.70479233 -95.54945374 307.14862061 C-95.56866255 299.47726693 -95.57928018 291.80591839 -95.58818153 284.13454682 C-95.59257171 280.51544139 -95.59793669 276.89633741 -95.60317039 273.27723312 C-95.62018016 261.23472459 -95.63467152 249.19221695 -95.64191914 237.14969826 C-95.64382881 234.02745182 -95.64574917 230.90520539 -95.64770508 227.78295898 C-95.64818882 227.00700789 -95.64867256 226.2310568 -95.64917096 225.43159203 C-95.6574608 212.87827586 -95.68278112 200.32505529 -95.71528576 187.7717808 C-95.74843825 174.86225003 -95.76637535 161.95276771 -95.76956338 149.04319417 C-95.77172112 141.80366481 -95.78036104 134.5642748 -95.80602455 127.32478714 C-95.83013753 120.50722051 -95.8335061 113.68990739 -95.82326317 106.87230682 C-95.82276962 104.37955009 -95.82903629 101.88678072 -95.84281921 99.39406204 C-95.98669798 71.8140261 -90.01726108 48.00073379 -70.58300781 27.52954102 C-69.47892578 26.42352539 -69.47892578 26.42352539 -68.35253906 25.29516602 C-67.66804688 24.59907227 -66.98355469 23.90297852 -66.27832031 23.18579102 C-48.37368437 6.10854121 -24.04105043 0.12776697 0 0 Z " fill="#020201" transform="translate(95.3525390625,31.704833984375)"/>
<path d="M0 0 C5.3451582 3.72459935 9.3558872 8.37635934 11.33203125 14.625 C12.36963815 22.79615433 12.01470555 29.61228968 7.2578125 36.4921875 C4.11821188 39.96931111 0.53236576 42.55843542 -3.66796875 44.625 C-4.32796875 44.625 -4.98796875 44.625 -5.66796875 44.625 C-5.66796875 52.545 -5.66796875 60.465 -5.66796875 68.625 C-3.60546875 68.563125 -1.54296875 68.50125 0.58203125 68.4375 C21.26432925 68.47907246 40.95403274 78.42255996 55.55078125 92.72265625 C66.32741985 103.73984481 78.33203125 121.49070383 78.33203125 137.625 C79.24984375 137.57859375 80.16765625 137.5321875 81.11328125 137.484375 C89.82708972 137.22808652 95.77017416 137.36788235 102.26171875 143.42578125 C109.99594084 151.68952477 110.83700721 158.7207483 110.76953125 169.75 C110.78951172 170.91660156 110.80949219 172.08320313 110.83007812 173.28515625 C110.82943359 174.41050781 110.82878906 175.53585938 110.828125 176.6953125 C110.82997803 177.71383301 110.83183105 178.73235352 110.83374023 179.78173828 C110.20350788 183.35336166 108.8282213 185.04246375 106.33203125 187.625 C103.33916243 188.54985966 101.54229724 188.08360943 98.33203125 187.625 C96.08114086 185.43304178 95.39233445 184.08102734 94.97900391 180.95532227 C94.98464355 179.96072998 94.9902832 178.9661377 94.99609375 177.94140625 C94.97675781 176.30268555 94.97675781 176.30268555 94.95703125 174.63085938 C94.95703125 172.33917939 94.96481735 170.04748591 94.98046875 167.75585938 C94.92546991 161.24793103 94.92546991 161.24793103 92.35546875 155.40234375 C88.61190798 152.92470697 88.61190798 152.92470697 80.33203125 152.625 C80.33203125 181.335 80.33203125 210.045 80.33203125 239.625 C88.62054993 239.33412784 88.62054993 239.33412784 92.359375 236.81640625 C95.38612081 231.91967095 94.95824626 227.20630851 94.89453125 221.5625 C94.87792536 219.40501143 94.87852248 217.24730431 94.8984375 215.08984375 C94.88756104 214.137146 94.87668457 213.18444824 94.86547852 212.20288086 C95.4727983 208.84720866 96.66374876 207.68692221 99.33203125 205.625 C102.83203125 205.0625 102.83203125 205.0625 106.33203125 205.625 C109.02001604 207.84258745 110.18523909 209.66172347 110.71289062 213.12426758 C110.87292578 216.19689057 110.87702324 219.23617275 110.83203125 222.3125 C110.8475 223.35083984 110.86296875 224.38917969 110.87890625 225.45898438 C110.8344981 234.31285874 109.09322116 241.84814534 103.08203125 248.5625 C95.84542593 255.05101743 87.72786815 255.20963526 78.33203125 255.625 C78.12449219 256.40101563 77.91695313 257.17703125 77.703125 257.9765625 C70.97569826 281.56477842 57.01697171 300.51998508 35.453125 312.578125 C21.77570252 319.70837691 8.24491941 321.76926858 -6.984375 321.80200195 C-8.3305122 321.80827655 -9.6766477 321.81492422 -11.02278137 321.82191467 C-15.42533182 321.84284535 -19.82788217 321.85330923 -24.23046875 321.86328125 C-25.75408953 321.86733342 -27.27771014 321.87145048 -28.80133057 321.87563133 C-35.96515314 321.89466174 -43.12896558 321.90889521 -50.29280853 321.9172433 C-58.5238438 321.92699691 -66.7546088 321.95327616 -74.98554897 321.99374419 C-81.37228575 322.02405208 -87.7589457 322.03872612 -94.14575291 322.04202431 C-97.94853823 322.04435878 -101.75103419 322.05310676 -105.55374146 322.07848549 C-109.13916876 322.10202906 -112.72412154 322.1058961 -116.30960655 322.09572411 C-118.22588085 322.09500469 -120.1421325 322.11391075 -122.05830383 322.13378906 C-133.96740568 322.0637131 -145.47490676 319.44719722 -156.04296875 313.8125 C-157.04481201 313.29320923 -157.04481201 313.29320923 -158.06689453 312.76342773 C-163.41861792 309.91572768 -168.11546825 306.63533125 -172.66796875 302.625 C-173.46332031 301.98304688 -174.25867188 301.34109375 -175.078125 300.6796875 C-189.22526911 288.82844777 -197.02433136 273.30340902 -201.66796875 255.625 C-202.51359375 255.58761719 -203.35921875 255.55023438 -204.23046875 255.51171875 C-214.17226894 254.93554624 -220.79560569 253.98589794 -228.02734375 246.9296875 C-234.5169223 237.81337477 -234.27411046 228.58888619 -234.234375 217.81640625 C-234.23961881 216.08202279 -234.24589805 214.34764218 -234.25315857 212.61326599 C-234.26352911 208.98968016 -234.25904992 205.36648785 -234.24438477 201.74291992 C-234.22720402 197.12180798 -234.25070047 192.50194035 -234.28587437 187.88096714 C-234.30793835 184.30246394 -234.30638522 180.72425436 -234.29810905 177.14570427 C-234.29729441 175.44301934 -234.30406374 173.74031178 -234.31888008 172.03769112 C-234.3978713 161.31888846 -233.81416683 152.70687046 -226.60546875 144.1875 C-225.64640625 143.4140625 -225.64640625 143.4140625 -224.66796875 142.625 C-223.70890625 141.820625 -223.70890625 141.820625 -222.73046875 141 C-217.93593556 137.80364454 -214.0839736 137.39292514 -208.35546875 137.5 C-207.10121094 137.51804688 -205.84695312 137.53609375 -204.5546875 137.5546875 C-203.60207031 137.57789063 -202.64945313 137.60109375 -201.66796875 137.625 C-201.58160156 136.97015625 -201.49523437 136.3153125 -201.40625 135.640625 C-198.27707482 115.31534031 -185.68145026 96.38154973 -169.23046875 84.1875 C-153.35932149 73.49434464 -136.3856579 67.44088401 -117.16455078 67.51147461 C-115.59778847 67.51125557 -115.59778847 67.51125557 -113.99937439 67.5110321 C-110.55815531 67.51172695 -107.11699083 67.51949934 -103.67578125 67.52734375 C-101.28539052 67.52920945 -98.8949994 67.53063264 -96.50460815 67.53163147 C-90.22134338 67.53544468 -83.93810181 67.54526478 -77.65484619 67.55633545 C-71.23995274 67.56657527 -64.82505552 67.5711346 -58.41015625 67.57617188 C-45.82941526 67.58688811 -33.24869757 67.60447524 -20.66796875 67.625 C-20.66796875 60.035 -20.66796875 52.445 -20.66796875 44.625 C-22.31796875 43.965 -23.96796875 43.305 -25.66796875 42.625 C-31.79658015 38.78163353 -35.39492813 33.43406416 -37.66796875 26.625 C-38.89501824 19.59637442 -37.35999944 13.66650477 -33.66796875 7.625 C-31.23046875 4.8125 -31.23046875 4.8125 -28.66796875 2.625 C-27.86359375 1.903125 -27.05921875 1.18125 -26.23046875 0.4375 C-17.99085304 -5.39052087 -8.54567409 -4.73712958 0 0 Z M-173.41796875 108.8125 C-187.05791476 126.31465295 -188.13077702 143.61057216 -188.06640625 165 C-188.06843057 167.37548919 -188.07134498 169.75097777 -188.07510376 172.12646484 C-188.07951022 177.08892777 -188.07315018 182.05122796 -188.05908203 187.01367188 C-188.04199142 193.34818478 -188.0518416 199.68231624 -188.06979942 206.01681519 C-188.08068263 210.91726513 -188.07717012 215.81762586 -188.06941605 220.71807861 C-188.06742658 223.05267381 -188.06982885 225.38727732 -188.07685471 227.72186279 C-188.11137668 242.4144164 -187.95655402 255.3796273 -181.04296875 268.6875 C-180.69669434 269.36232422 -180.35041992 270.03714844 -179.99365234 270.73242188 C-172.9743173 283.93568116 -162.97913993 293.13997157 -149.79296875 299.9375 C-149.16962646 300.26322998 -148.54628418 300.58895996 -147.90405273 300.92456055 C-137.72063441 305.91439659 -127.362224 307.0712631 -116.15112305 307.02905273 C-114.85673309 307.03591599 -113.56234314 307.04277924 -112.22872925 307.04985046 C-108.71400849 307.06762552 -105.19953951 307.06664307 -101.68478751 307.06090808 C-98.7330115 307.05779243 -95.78128221 307.06393503 -92.82951289 307.06994683 C-85.85578391 307.08393994 -78.88217756 307.08247531 -71.90844727 307.07104492 C-64.75449279 307.059577 -57.6009138 307.07362879 -50.44700879 307.1004414 C-44.26821303 307.1227178 -38.08953409 307.12920887 -31.9107011 307.12336498 C-28.23657117 307.12002155 -24.56268155 307.12223321 -20.88858604 307.13961601 C0.09963773 307.49700446 0.09963773 307.49700446 20.33203125 302.625 C21.06643433 302.35532913 21.8008374 302.08565826 22.55749512 301.80781555 C41.02298022 294.41056092 52.74643363 279.97145732 60.921875 262.4609375 C64.11073404 254.4863883 64.62873115 246.26345682 64.60668945 237.76611328 C64.61180038 236.73054291 64.61691132 235.69497253 64.62217712 234.62802124 C64.63598019 231.2337248 64.63512337 227.83963353 64.6328125 224.4453125 C64.63670448 222.06696498 64.64104018 219.68861816 64.64579773 217.31027222 C64.65323997 212.33589419 64.65298311 207.36158716 64.64770508 202.38720703 C64.64191273 196.03696104 64.65884585 189.68700693 64.68204975 183.33680916 C64.69683603 178.42778852 64.69765213 173.5188374 64.69454002 168.60979843 C64.69505076 166.26961565 64.70024155 163.92942873 64.71035194 161.58926773 C64.79906962 138.18492053 61.11662015 120.09411536 44.33203125 102.625 C28.52766151 87.19278968 8.60824563 82.49941088 -12.88867188 82.44799805 C-14.09308929 82.44142685 -15.29750671 82.43485565 -16.53842163 82.42808533 C-20.50868104 82.40844012 -24.47892709 82.39669513 -28.44921875 82.38671875 C-29.82578042 82.38266485 -31.2023419 82.37854776 -32.5789032 82.37436867 C-39.05234482 82.35534836 -45.52577531 82.34111282 -51.99923944 82.3327567 C-59.42600074 82.32300696 -66.85246222 82.29673371 -74.27911806 82.25625581 C-80.04933539 82.22590549 -85.81946769 82.21126995 -91.58976316 82.20797569 C-95.02201944 82.20564602 -98.45395436 82.19696293 -101.88612366 82.17151451 C-130.44785729 81.98883845 -153.78733806 86.27362772 -173.41796875 108.8125 Z " fill="#050504" transform="translate(317.66796875,79.375)"/>
<path d="M0 0 C3.43843418 0.01406046 6.87684346 0.00736696 10.31529617 0.00386691 C16.08450719 0.00118108 21.85350823 0.01449872 27.62266922 0.03781772 C34.24837613 0.06441718 40.87373249 0.06616843 47.49947453 0.05442935 C53.93022231 0.04356879 60.36084598 0.04990293 66.79158401 0.06398463 C69.50249112 0.06967327 72.21330523 0.06971906 74.92421341 0.06491923 C101.32685374 0.0444768 124.89705134 2.05434225 145.08263016 21.0395267 C158.03038435 34.45501585 164.78404097 50.73494097 164.73619461 69.24973178 C164.74130554 70.28515613 164.74641647 71.32058047 164.75168228 72.38738132 C164.76550464 75.78711471 164.76462688 79.18664366 164.76231766 82.5864017 C164.76620892 84.96617846 164.77054447 87.34595452 164.77530289 89.7257297 C164.78274953 94.70608406 164.7824853 99.6863675 164.77721024 104.66672397 C164.77142098 111.02484569 164.78834136 117.3826756 164.81155491 123.74074912 C164.82634236 128.65406096 164.82715707 133.56730335 164.82404518 138.4806335 C164.82455598 140.82360736 164.82974799 143.16658535 164.8398571 145.50953746 C164.89543626 160.19293763 164.77955043 173.1877525 157.89903641 186.50437045 C157.55388992 187.17734164 157.20874344 187.85031283 156.85313797 188.54367709 C148.84602989 203.54543892 136.39309829 214.52756486 120.46153641 220.50437045 C119.09261246 221.03399386 119.09261246 221.03399386 117.69603348 221.57431674 C104.54972377 225.83955046 90.8431524 225.09157023 77.17417336 225.04167247 C73.4776726 225.03141694 69.78120803 225.04097244 66.08470535 225.04721713 C59.88162881 225.05445755 53.67874389 225.04500146 47.47569656 225.02585483 C40.34381833 225.00409292 33.21239781 225.01114688 26.08053064 225.03316045 C19.91440035 225.05141819 13.74840639 225.05382256 7.58225775 225.04340577 C3.91824838 225.03722734 0.25445283 225.03617654 -3.40954208 225.04955173 C-29.57800324 225.13189395 -49.8640626 222.70967633 -69.53846359 203.50437045 C-81.99283804 189.67049431 -87.86102938 174.11444196 -87.8131218 155.64548373 C-87.82078819 154.09212817 -87.82078819 154.09212817 -87.82860947 152.50739169 C-87.84241253 149.11309525 -87.84155571 145.71900398 -87.83924484 142.32468295 C-87.84313682 139.94633544 -87.84747252 137.56798861 -87.85223007 135.18964267 C-87.85967231 130.21526464 -87.85941545 125.24095762 -87.85413742 120.26657748 C-87.84834507 113.91633149 -87.8652782 107.56637738 -87.88848209 101.21617961 C-87.90326837 96.30715897 -87.90408448 91.39820785 -87.90097237 86.48916888 C-87.9014831 84.1489861 -87.9066739 81.80879918 -87.91678429 79.46863818 C-88.00315937 56.68228518 -85.00621906 38.6075377 -68.53846359 21.50437045 C-48.62628473 2.34123907 -26.49925502 -0.1356725 0 0 Z M-29.30018234 37.2270267 C-30.76727234 39.58175336 -30.76727234 39.58175336 -30.91346359 42.9457767 C-31.89157242 48.51488385 -35.23760588 50.43666222 -39.54627609 53.7660892 C-43.17477139 55.87402707 -45.41209099 56.16529867 -49.46815109 55.33249545 C-52.98545145 55.62449774 -54.32996297 57.90248065 -56.53846359 60.50437045 C-58.01011657 62.78462396 -59.36288454 65.00954063 -60.66346359 67.37937045 C-60.99733078 67.96589389 -61.33119797 68.55241733 -61.67518234 69.1567142 C-69.4086989 82.95573395 -71.01563402 96.75761499 -70.97205734 112.38718295 C-70.97663824 113.85918038 -70.98194933 115.3311757 -70.98794174 116.80316806 C-70.99678538 119.8603966 -70.99454893 122.91736267 -70.98450851 125.97458529 C-70.97299289 129.85524796 -70.99331413 133.73500403 -71.02242565 137.6155479 C-71.04092886 140.64597771 -71.04046805 143.67619543 -71.03478813 146.70666766 C-71.03463683 148.13613673 -71.04051897 149.56562199 -71.05307961 150.99503589 C-71.17936463 167.70454491 -66.83267686 180.94064897 -55.35096359 193.25437045 C-43.52428123 204.45859584 -30.45943217 207.97606131 -14.54652023 207.89255404 C-12.6710778 207.90043948 -12.6710778 207.90043948 -10.75774765 207.90848422 C-7.36081155 207.91935037 -3.96443086 207.91690948 -0.56752706 207.90734696 C3.00894521 207.89968563 6.58539573 207.90681392 10.16186905 207.91150546 C16.16601635 207.91694505 22.17005251 207.9098196 28.17418289 207.89548373 C35.08670943 207.87916808 41.99897029 207.884445 48.91149038 207.90096295 C54.87620448 207.91463826 60.84083925 207.91646791 66.80556399 207.90864694 C70.35492806 207.90400247 73.90416786 207.90325535 77.45352364 207.91325641 C81.41585114 207.92364354 85.37788836 207.90919056 89.34019852 207.89255404 C90.49536972 207.89862674 91.65054092 207.90469943 92.84071732 207.91095614 C108.20492085 207.79219847 120.95475883 203.5398262 132.14122391 192.87937045 C141.64269658 183.15395734 147.52453888 171.63640258 147.63853836 157.86252475 C147.64839516 156.87366527 147.64839516 156.87366527 147.65845108 155.86482882 C147.67813075 153.68608089 147.68984255 151.50740217 147.69981766 149.3285892 C147.70389318 148.57870038 147.70796871 147.82881156 147.71216774 147.05619884 C147.73301844 143.07725562 147.74731736 139.09834667 147.75670242 135.11936069 C147.76768891 131.04921995 147.80199992 126.97963777 147.84187412 122.90969253 C147.86829753 119.74795805 147.87641734 116.5863506 147.8799839 113.42451549 C147.88479385 111.92689746 147.89624353 110.42928287 147.9150219 108.93177485 C148.07228144 95.54516707 146.04215617 83.11687098 139.64903641 71.12937045 C139.30211746 70.46147494 138.95519852 69.79357944 138.59776688 69.10544467 C135.74774977 63.75792283 132.55205153 58.99292742 128.46153641 54.50437045 C127.74610672 53.69741733 127.03067703 52.8904642 126.29356766 52.05905795 C111.99120411 36.8000926 93.32978018 28.32828717 72.47504044 27.30965304 C68.02675483 27.20184825 63.57885844 27.19913431 59.12950516 27.2035892 C57.48247548 27.19968839 55.83544679 27.19535095 54.18841934 27.19060397 C50.75525511 27.18319464 47.3221938 27.18339403 43.88902664 27.18869662 C39.53571497 27.19448115 35.18283017 27.17755887 30.82958889 27.15435195 C27.43276978 27.13946718 24.03604998 27.13876275 20.63920403 27.14186168 C19.03638045 27.14135573 17.4335502 27.13625839 15.83075905 27.12604976 C-8.42031685 26.96157103 -8.42031685 26.96157103 -29.30018234 37.2270267 Z " fill="#F3F2F3" transform="translate(217.5384635925293,161.4956295490265)"/>
<path d="M0 0 C-1.04285156 0.53109375 -2.08570313 1.0621875 -3.16015625 1.609375 C-7.13822432 3.89398839 -9.68456906 6.62366561 -12.4375 10.25 C-12.90486572 10.8584375 -13.37223145 11.466875 -13.85375977 12.09375 C-26.38681623 28.96739811 -31.15094058 47.46229417 -31.14717102 68.26283264 C-31.15084771 69.3658761 -31.1545244 70.46891956 -31.1583125 71.60538858 C-31.16928657 75.285189 -31.17318246 78.96496111 -31.17700195 82.64477539 C-31.18327129 85.29006107 -31.18990643 87.93534382 -31.19691467 90.58062744 C-31.21660036 98.5043432 -31.22673367 106.42806008 -31.23564246 114.35179415 C-31.24003696 118.09193116 -31.2454006 121.83206677 -31.25063133 125.57220268 C-31.26763312 138.01887372 -31.28212588 150.46554392 -31.28938007 162.91222477 C-31.29128965 166.13606327 -31.29321003 169.35990176 -31.29516602 172.58374023 C-31.29589163 173.78549542 -31.29589163 173.78549542 -31.2966319 175.01152848 C-31.30492731 187.98174335 -31.33026068 200.95186585 -31.36274669 213.92204041 C-31.39589313 227.26559085 -31.41383553 240.60909445 -31.41702431 253.95268625 C-31.41918203 261.43361968 -31.42782224 268.91441827 -31.45348549 276.39531136 C-31.47529619 282.76745581 -31.48319224 289.13943261 -31.47351871 295.51161016 C-31.46900418 298.7562559 -31.47291909 302.00048782 -31.49028015 305.24510002 C-31.58355677 323.720801 -30.0393641 339.09124897 -22 356 C-21.59394531 356.88816406 -21.18789063 357.77632813 -20.76953125 358.69140625 C-16.53773023 367.21705816 -10.32775339 373.98622804 -4 381 C-10.26217399 383.08739133 -17.63777672 379.07645618 -23.39453125 376.453125 C-42.66307161 366.48742678 -56.07240001 351.24120933 -63.2109375 330.79296875 C-65.36125285 323.18170403 -66.29298087 316.2179402 -66.26742554 308.29989624 C-66.27195665 307.2574005 -66.27648776 306.21490476 -66.28115618 305.14081824 C-66.29376303 301.66593595 -66.29218219 298.19121114 -66.29052734 294.71630859 C-66.29651497 292.21718139 -66.30332106 289.71805604 -66.31088257 287.21893311 C-66.3266964 281.14510789 -66.33299002 275.07134401 -66.33410732 268.99750392 C-66.33506019 264.05552666 -66.33918237 259.11356213 -66.34550858 254.1715889 C-66.36310959 240.13433344 -66.37234944 226.09710848 -66.37084763 212.05984192 C-66.37076772 211.30420053 -66.3706878 210.54855914 -66.37060547 209.77001953 C-66.37052371 209.01344632 -66.37044195 208.25687311 -66.37035771 207.47737344 C-66.36954552 195.22749201 -66.38866908 182.97773374 -66.4168822 170.72788791 C-66.44567851 158.12449351 -66.45941874 145.52115903 -66.45769465 132.91773093 C-66.45703299 125.85210758 -66.46242631 118.7866133 -66.48405075 111.72101974 C-66.50427453 105.07086304 -66.5035202 98.42093104 -66.48901749 91.77074432 C-66.48693493 89.3388466 -66.49159698 86.90693163 -66.5037384 84.47506332 C-66.57819348 68.52046187 -65.91120403 54.16194162 -58.3125 39.75 C-57.9714624 39.08871094 -57.6304248 38.42742187 -57.27905273 37.74609375 C-47.17302799 18.85032703 -29.87931989 6.68040892 -9.75 0.28515625 C-6.09935374 -0.74158801 -3.60868654 -1.10486218 0 0 Z " fill="#B0E153" transform="translate(81,49)"/>
<path d="M0 0 C1.65421607 -0.00135174 3.30843175 -0.00329647 4.96264648 -0.00579834 C8.40840484 -0.00872572 11.85405861 -0.00452962 15.29980469 0.00488281 C19.68023508 0.01627588 24.06042024 0.00970349 28.44084167 -0.00226212 C31.85040073 -0.0095457 35.2599032 -0.00716323 38.66946411 -0.00200653 C40.28313223 -0.00068793 41.89680576 -0.0022537 43.51046753 -0.00696564 C56.01609217 -0.03548338 68.40763196 0.26850209 80.0625 5.328125 C80.77752686 5.63339111 81.49255371 5.93865723 82.22924805 6.25317383 C102.38269628 15.21600686 116.94213873 31.12118588 125.45066833 51.3190918 C129.41388558 61.82225658 130.02585578 72.29290525 129.99609375 83.390625 C130.0006712 84.91032134 130.00598131 86.43001563 130.01197815 87.94970703 C130.0208418 91.11304205 130.01856324 94.27612368 130.00854492 97.43945312 C129.99704957 101.456925 130.01730942 105.47351853 130.04646206 109.49087524 C130.06496311 112.62253197 130.06450448 115.75398339 130.05882454 118.88568115 C130.05867309 120.36538934 130.06456804 121.84511307 130.07711601 123.32476807 C130.20022604 140.21140352 125.98239651 153.66168417 114.25 166.078125 C104.39530505 175.43088303 92.58519798 180.35075553 78.9931488 180.41279602 C77.90984787 180.41995132 76.82654694 180.42710663 75.7104187 180.43447876 C74.53681793 180.43716766 73.36321716 180.43985657 72.15405273 180.44262695 C70.28211494 180.45248375 70.28211494 180.45248375 68.37236023 180.46253967 C64.24693557 180.48223129 60.12154972 180.4939353 55.99609375 180.50390625 C54.56932113 180.50795784 53.14254869 180.51207488 51.71577644 180.51625633 C45.00793613 180.53528958 38.30010666 180.54952267 31.59224457 180.5578683 C23.88074577 180.56762412 16.16953527 180.5939079 8.45813793 180.63436919 C2.47739385 180.66465942 -3.50326819 180.67934945 -9.48408741 180.68264931 C-13.04649914 180.68498572 -16.60860227 180.69375959 -20.17093086 180.71911049 C-24.15523135 180.74700775 -28.13889866 180.74252098 -32.12329102 180.7355957 C-33.28272217 180.74840576 -34.44215332 180.76121582 -35.63671875 180.77441406 C-50.76050352 180.67920734 -63.16608128 175.35485327 -74.1875 165.078125 C-86.18942693 152.40942435 -88.91918313 138.76622809 -88.8359375 121.84375 C-88.83796543 120.37082781 -88.84088279 118.8979066 -88.84463501 117.42498779 C-88.84903021 114.35223745 -88.84272256 111.27975066 -88.82861328 108.20703125 C-88.81158365 104.31312496 -88.82134064 100.41984215 -88.83933067 96.52595901 C-88.85029723 93.48687247 -88.84666309 90.44792775 -88.8389473 87.40883636 C-88.83697742 85.97545036 -88.83928832 84.54205051 -88.84638596 83.10868073 C-88.89579851 70.3227026 -87.9314189 57.28951534 -81.625 45.890625 C-81.27679199 45.22925537 -80.92858398 44.56788574 -80.56982422 43.88647461 C-73.2239799 30.15886495 -73.2239799 30.15886495 -69.4375 28.265625 C-65.56325435 27.90689855 -63.28816094 27.69851771 -60 29.890625 C-57.9483162 33.00918438 -58.02894351 34.56641244 -58.4375 38.265625 C-60.07049167 41.10824013 -61.8341135 43.65168022 -63.79882812 46.26367188 C-71.63749598 57.44511048 -73.20963572 70.12734248 -73.1015625 83.40234375 C-73.10494512 84.89915864 -73.10980961 86.39597082 -73.11605835 87.89277649 C-73.12335527 91.0014611 -73.11295658 94.1094187 -73.08935547 97.21801758 C-73.06079513 101.16852415 -73.07736122 105.11733688 -73.10721779 109.0677824 C-73.12542417 112.14885359 -73.11947379 115.22953344 -73.10657883 118.31061745 C-73.10328533 119.76602196 -73.10718594 121.22146409 -73.11897659 122.67682457 C-73.1992094 135.34992576 -70.73852 145.89858887 -61.7578125 155.2890625 C-55.08326358 160.97478936 -47.88579427 164.37271935 -39.13316345 164.41279602 C-38.05813568 164.41995132 -36.98310791 164.42710663 -35.87550354 164.43447876 C-34.70092087 164.43716766 -33.5263382 164.43985657 -32.31616211 164.44262695 C-30.45447388 164.45248375 -30.45447388 164.45248375 -28.55517578 164.46253967 C-24.4417293 164.48227307 -20.32832183 164.4939414 -16.21484375 164.50390625 C-14.79484094 164.50795601 -13.37483832 164.512073 -11.95483589 164.51625633 C-5.27902902 164.53530266 1.39676686 164.5495322 8.07259566 164.5578683 C15.75753475 164.56762474 23.44218458 164.59390457 31.12702185 164.63436919 C37.07966915 164.66462776 43.03223403 164.67934654 48.98495668 164.68264931 C52.53392067 164.68498964 56.08257548 164.69381529 59.63145638 164.71911049 C63.59952947 164.74693634 67.56722894 164.74253039 71.53540039 164.7355957 C73.27601997 164.75481079 73.27601997 164.75481079 75.05180359 164.77441406 C85.95846274 164.70523598 95.53165496 161.89051524 103.5625 154.265625 C112.75240171 144.37208812 114.18511009 133.75401565 114.12890625 120.72265625 C114.13415664 119.22588214 114.14043822 117.72911133 114.14768982 116.23234558 C114.1580458 113.10647945 114.15360661 109.98106981 114.13891602 106.85522461 C114.12179724 102.89258311 114.14516129 98.93140128 114.18040562 94.96892262 C114.2026119 91.87917369 114.20088189 88.78976102 114.1926403 85.69995689 C114.1918322 84.24143569 114.19847185 82.78288682 114.21341133 81.32444191 C114.37775322 62.37061482 107.92193812 47.40986011 94.94140625 33.55078125 C80.06284846 19.25857056 62.07374838 15.77763082 42.1875 15.90234375 C40.52945964 15.90286396 38.87141866 15.90234007 37.21337891 15.90083313 C33.75739191 15.90092226 30.30164105 15.91122965 26.84570312 15.92944336 C22.44831462 15.95212814 18.05127005 15.95266803 13.65383911 15.94592571 C10.23572817 15.94256087 6.81769355 15.94926281 3.39959717 15.95905495 C1.77952475 15.96286401 0.15944378 15.96407331 -1.46063232 15.9624691 C-13.36842048 15.96049683 -24.50461733 16.19220759 -35.40625 21.42578125 C-38.61473648 22.75236701 -41.04275146 22.86469827 -44.4375 22.265625 C-46.9375 20.203125 -46.9375 20.203125 -48.4375 17.265625 C-48.6875 13.765625 -48.6875 13.765625 -47.4375 10.265625 C-35.43727514 -1.00731351 -15.29717305 -0.04466821 0 0 Z " fill="#030304" transform="translate(235.4375,188.734375)"/>
<path d="M0 0 C1.66179543 -0.00149551 1.66179543 -0.00149551 3.35716248 -0.00302124 C5.69122521 0.00164506 8.0252994 0.02101296 10.35913086 0.05419922 C13.92588475 0.10146035 17.48965227 0.09530331 21.05664062 0.08203125 C23.32944485 0.09318388 25.60223653 0.10740308 27.875 0.125 C29.46895348 0.12226578 29.46895348 0.12226578 31.09510803 0.11947632 C38.52270709 0.26135842 42.0729904 1.42845915 47.37109375 6.7265625 C48.61569605 18.17400927 47.19294633 28.37149292 39.87109375 37.5390625 C32.49037344 45.05496083 24.67353307 48.28171547 14.24609375 48.4140625 C6.99568648 48.28409457 1.34484907 47.06382929 -4.62890625 42.7265625 C-5.28117188 42.26894531 -5.9334375 41.81132812 -6.60546875 41.33984375 C-13.25074149 36.17915322 -16.67099335 29.83061939 -18.62890625 21.7265625 C-19.0703125 17.97265625 -19.0703125 17.97265625 -19.19140625 14.1640625 C-19.25457031 12.90464844 -19.31773437 11.64523437 -19.3828125 10.34765625 C-18.47350177 5.98013788 -17.25329101 4.71487086 -13.87879944 1.98384094 C-9.51452583 -0.45498911 -4.88389995 -0.08481803 0 0 Z " fill="#040505" transform="translate(241.62890625,291.2734375)"/>
<path d="M0 0 C0.66 0.33 1.32 0.66 2 1 C1.50371094 1.52207031 1.00742188 2.04414063 0.49609375 2.58203125 C-18.40182948 23.0577697 -22.64599104 45.09421626 -22.49609375 72.00390625 C-22.49624914 74.29923041 -22.49774464 76.59455482 -22.50050354 78.88987732 C-22.50187962 83.67466997 -22.48946177 88.45915999 -22.46655273 93.24389648 C-22.43815493 99.338127 -22.4409208 105.4318563 -22.45364285 111.526124 C-22.46063899 116.25770759 -22.45276627 120.98917789 -22.44038582 125.72074699 C-22.43591062 127.96633404 -22.43549959 130.21193341 -22.43945122 132.45752144 C-22.4647133 159.43328451 -17.70306134 181.16244677 2 201 C4.6039767 203.41365282 7.25850047 205.74405215 10 208 C9.34 208.33 8.68 208.66 8 209 C-9.99761351 201.87191293 -21.67054132 186.79784766 -29.58984375 169.8359375 C-32.77870279 161.8613883 -33.2966999 153.63845682 -33.2746582 145.14111328 C-33.2823246 143.58775772 -33.2823246 143.58775772 -33.29014587 142.00302124 C-33.30394894 138.6087248 -33.30309212 135.21463353 -33.30078125 131.8203125 C-33.30467323 129.44196498 -33.30900893 127.06361816 -33.31376648 124.68527222 C-33.32120872 119.71089419 -33.32095186 114.73658716 -33.31567383 109.76220703 C-33.30988148 103.41196104 -33.3268146 97.06200693 -33.3500185 90.71180916 C-33.36480478 85.80278852 -33.36562088 80.8938374 -33.36250877 75.98479843 C-33.36301951 73.64461565 -33.3682103 71.30442873 -33.37832069 68.96426773 C-33.46437588 46.26230568 -30.52131 27.99036927 -14 11 C-9.54933364 7.01468481 -4.97153885 3.31435923 0 0 Z " fill="#E2E2E2" transform="translate(163,172)"/>
<path d="M0 0 C5.75070545 3.205011 9.60552611 7.75407834 11.6875 14 C12.35750408 21.41397958 12.33226115 27.91563452 7.6875 34 C3.24884466 38.712127 -1.01110441 41.58533196 -7.546875 42.40625 C-14.65519965 42.59580532 -19.81144179 42.37876997 -25.46875 37.80859375 C-31.01994954 32.36324335 -32.63051844 28.42642135 -32.9375 20.5 C-32.69465031 14.0644831 -31.90017138 9.63157254 -27.3125 5 C-19.15249254 -2.20747741 -10.35105102 -4.67365637 0 0 Z " fill="#030304" transform="translate(315.3125,241)"/>
<path d="M0 0 C6.19848441 2.8109406 11.11325284 8.01597798 13.640625 14.3515625 C14.74310691 22.91610618 13.88321606 30.33093557 8.640625 37.3515625 C2.42782185 43.23809153 -3.59677553 43.77239257 -11.83984375 43.6875 C-17.87439307 43.11150528 -21.19178227 40.8002277 -25.13671875 36.34375 C-30.41514026 29.61221009 -31.25706951 23.84269646 -30.359375 15.3515625 C-28.02335289 7.83071084 -23.06290268 4.03916122 -16.359375 0.3515625 C-11.68943994 -1.98340503 -4.92662021 -1.35400489 0 0 Z " fill="#030303" transform="translate(216.359375,239.6484375)"/>
<path d="M0 0 C9 0 9 0 12 1.875 C15.10765532 5.17688378 15.12659631 7.08122371 15.17578125 11.5234375 C15.19962891 12.626875 15.22347656 13.7303125 15.24804688 14.8671875 C15.2908687 17.19773278 15.32219887 19.52851873 15.34179688 21.859375 C15.36951172 22.96539062 15.39722656 24.07140625 15.42578125 25.2109375 C15.44036377 26.22462402 15.45494629 27.23831055 15.4699707 28.28271484 C16.13200309 31.67673627 17.35408019 32.84603513 20 35 C20.66 35.33 21.32 35.66 22 36 C22.13494246 38.6058889 22.23402299 41.20482111 22.3125 43.8125 C22.35439453 44.55048828 22.39628906 45.28847656 22.43945312 46.04882812 C22.48828125 48.20703125 22.48828125 48.20703125 22 52 C19.54296875 53.88671875 19.54296875 53.88671875 17 55 C15.72382865 57.55234269 15.85741337 59.41455541 15.82421875 62.26953125 C15.80037109 63.32333984 15.77652344 64.37714844 15.75195312 65.46289062 C15.70921355 67.68405343 15.67783913 69.90546594 15.65820312 72.12695312 C15.44515482 80.25747088 15.44515482 80.25747088 13.08203125 84.19921875 C8.38996854 88.25745686 7.79638949 87 0 87 C0 58.29 0 29.58 0 0 Z " fill="#D2CDD2" transform="translate(398,232)"/>
<path d="M0 0 C0 28.71 0 57.42 0 87 C-10 87 -10 87 -13.08555603 84.46791077 C-15.29701433 80.46197475 -15.62774234 78.07053042 -15.63110352 73.51342773 C-15.63825882 72.78906525 -15.64541412 72.06470276 -15.65278625 71.31838989 C-15.66960631 68.93947024 -15.65031468 66.56245296 -15.62890625 64.18359375 C-15.62973549 62.5226272 -15.63219694 60.86166074 -15.63621521 59.20069885 C-15.63906848 55.7264016 -15.62441722 52.25275072 -15.59692383 48.77856445 C-15.56281462 44.33072404 -15.56887222 39.88403691 -15.5875864 35.43614101 C-15.5981659 32.00879848 -15.58921052 28.58172328 -15.57420158 25.15440559 C-15.56902804 23.51459612 -15.56949153 21.87475863 -15.57574654 20.23495293 C-15.58121158 17.94175244 -15.56078651 15.65019126 -15.53344727 13.35717773 C-15.5241494 11.40242775 -15.5241494 11.40242775 -15.5146637 9.40818787 C-14.91772112 5.45513566 -13.79107883 3.80577955 -11 1 C-9 0 -9 0 0 0 Z " fill="#D0CBD0" transform="translate(114,232)"/>
<path d="M0 0 C11.88 0 23.76 0 36 0 C34.9155112 7.5914216 33.92473027 10.68458853 28 15.375 C22.94131391 17.95329807 17.5086379 17.82666146 12 17 C7.0000634 15.24151338 4.00344403 12.58799499 1.5 7.9375 C0.09951519 4.8890309 0 3.55078447 0 0 Z " fill="#EDECED" transform="translate(238,307)"/>
<path d="M0 0 C3.66182182 2.64897749 4.84097547 4.01051403 5.5625 8.5 C4.91877781 12.50538252 3.84054174 14.15945826 1 17 C-2.13871188 18.56935594 -4.53855822 18.35201103 -8 18 C-11.53421028 15.46458828 -12.77241926 13.69538558 -14.125 9.5625 C-13.95278418 4.65434903 -12.46551473 3.38492136 -9 0 C-5.77509551 -1.61245225 -3.43772273 -0.81573082 0 0 Z " fill="#E08B93" transform="translate(309,92)"/>
<path d="M0 0 C2.375 1.625 2.375 1.625 4 4 C4.48288863 7.31123632 4.29618989 9.296549 3 12.375 C0.2897489 14.57707902 -1.70878117 14.51582761 -5.125 14.30859375 C-7 14 -7 14 -9 13 C-10.63041883 9.73916234 -10.65964122 6.55761554 -10 3 C-7.21052771 -0.43319666 -4.246332 -0.61925675 0 0 Z " fill="#F0F0F0" transform="translate(308,254)"/>
<path d="M0 0 C2.375 1.5625 2.375 1.5625 4 4 C4.42213381 7.43737531 4.60856522 9.82090489 3 12.9375 C-0.24104443 14.65930485 -3.42422767 14.66300779 -7 14 C-9.6923481 11.81246717 -9.93936827 10.41576045 -10.4375 7 C-10 4 -10 4 -8.375 1.625 C-5.28813568 -0.48706506 -3.6717087 -0.61195145 0 0 Z " fill="#F1F0F1" transform="translate(211,254)"/>
</svg>
